<?xml version="1.0" encoding="UTF-8" standalone="no"?>
<!-- Created with Inkscape (http://www.inkscape.org/) -->

<svg
   xmlns:dc="http://purl.org/dc/elements/1.1/"
   xmlns:cc="http://creativecommons.org/ns#"
   xmlns:rdf="http://www.w3.org/1999/02/22-rdf-syntax-ns#"
   xmlns:svg="http://www.w3.org/2000/svg"
   xmlns="http://www.w3.org/2000/svg"
   xmlns:sodipodi="http://sodipodi.sourceforge.net/DTD/sodipodi-0.dtd"
   xmlns:inkscape="http://www.inkscape.org/namespaces/inkscape"
   width="81.258003mm"
   height="24.700001mm"
   viewBox="0 0 81.258003 24.700001"
   version="1.1"
   id="svg4063"
   inkscape:version="0.92.4 (5da689c313, 2019-01-14)"
   sodipodi:docname="logo.svg">
  <defs
     id="defs4057" />
  <sodipodi:namedview
     id="base"
     pagecolor="#ffffff"
     bordercolor="#666666"
     borderopacity="1.0"
     inkscape:pageopacity="0.0"
     inkscape:pageshadow="2"
     inkscape:zoom="0.35"
     inkscape:cx="400"
     inkscape:cy="560"
     inkscape:document-units="mm"
     inkscape:current-layer="layer1"
     showgrid="false"
     inkscape:window-width="1366"
     inkscape:window-height="705"
     inkscape:window-x="-8"
     inkscape:window-y="-8"
     inkscape:window-maximized="1" />
  <metadata
     id="metadata4060">
    <rdf:RDF>
      <cc:Work
         rdf:about="">
        <dc:format>image/svg+xml</dc:format>
        <dc:type
           rdf:resource="http://purl.org/dc/dcmitype/StillImage" />
        <dc:title></dc:title>
      </cc:Work>
    </rdf:RDF>
  </metadata>
  <g
     inkscape:label="Capa 1"
     inkscape:groupmode="layer"
     id="layer1"
     transform="translate(0,-272.3)">
    <g
       id="g229"
       transform="matrix(0.35277777,0,0,-0.35277777,-26.872864,680.18144)">
      <g
         id="g215"
         transform="translate(266.4671,1137.575)">
        <path
           d="m 0,0 c 0,-0.353 -0.128,-0.646 -0.385,-0.881 -0.257,-0.235 -0.567,-0.353 -0.932,-0.353 -0.365,0 -0.675,0.118 -0.928,0.353 -0.254,0.235 -0.381,0.528 -0.381,0.881 0,0.359 0.129,0.659 0.385,0.9 0.257,0.241 0.565,0.362 0.924,0.362 0.377,0 0.691,-0.124 0.941,-0.371 C -0.125,0.643 0,0.346 0,0 m 34.745,0 c 0,-0.353 -0.128,-0.646 -0.385,-0.881 -0.256,-0.235 -0.567,-0.353 -0.932,-0.353 -0.365,0 -0.674,0.118 -0.928,0.353 -0.254,0.235 -0.38,0.528 -0.38,0.881 0,0.359 0.128,0.659 0.385,0.9 0.256,0.241 0.564,0.362 0.923,0.362 0.377,0 0.691,-0.124 0.942,-0.371 C 34.62,0.643 34.745,0.346 34.745,0 m -131.21,-1.549 h -1.596 l 2.143,3.015 h 2.069 z m 2.013,-5.577 c 0,0.755 -0.176,1.33 -0.529,1.726 -0.352,0.396 -0.847,0.594 -1.484,0.594 -0.582,0 -1.086,-0.215 -1.513,-0.645 -0.427,-0.43 -0.696,-0.988 -0.807,-1.675 z m 86.487,-0.185 c 0,0.668 -0.224,1.24 -0.672,1.716 -0.449,0.476 -1.004,0.715 -1.666,0.715 -0.81,0 -1.436,-0.297 -1.879,-0.891 -0.442,-0.594 -0.663,-1.429 -0.663,-2.505 0,-0.959 0.218,-1.709 0.654,-2.25 0.436,-0.541 1.028,-0.812 1.777,-0.812 0.693,0 1.274,0.274 1.744,0.821 0.47,0.548 0.705,1.26 0.705,2.139 z m -57.819,-2.737 c 0,-0.409 0.148,-0.735 0.445,-0.979 0.297,-0.245 0.675,-0.367 1.132,-0.367 0.637,0 1.163,0.218 1.578,0.654 0.414,0.437 0.621,0.985 0.621,1.647 v 0.854 l -2.05,-0.269 c -0.65,-0.093 -1.1,-0.254 -1.35,-0.483 -0.251,-0.228 -0.376,-0.581 -0.376,-1.057 m 70.196,0 c 0,-0.409 0.148,-0.735 0.445,-0.979 0.297,-0.245 0.674,-0.367 1.132,-0.367 0.637,0 1.163,0.218 1.577,0.654 0.415,0.437 0.622,0.985 0.622,1.647 v 0.854 L 6.137,-8.508 C 5.488,-8.601 5.038,-8.762 4.787,-8.991 4.537,-9.219 4.412,-9.572 4.412,-10.048 m 30.064,-2.812 h -2.143 v 9.501 h 2.143 z m -34.745,0 h -2.143 v 9.501 h 2.143 z m -44.334,11.403 h -4.991 v -3.748 h 4.639 v -1.893 h -4.639 v -3.86 h 5.297 v -1.902 h -7.506 V 0.445 h 7.2 z M 40.029,-12.86 H 37.886 V 1.206 h 2.143 z m -110.493,0 h -2.144 V 1.206 h 2.144 z m -17.164,0 h -2.144 V 1.206 h 2.144 z m 103.001,0 H 13.23 v 9.501 h 2.143 V -4.88 h 0.037 c 0.712,1.169 1.739,1.753 3.081,1.753 1.008,0 1.789,-0.321 2.343,-0.965 0.553,-0.643 0.83,-1.62 0.83,-2.932 v -5.836 h -2.143 v 5.335 c 0,0.891 -0.15,1.554 -0.45,1.991 -0.3,0.436 -0.784,0.654 -1.452,0.654 -0.65,0 -1.186,-0.246 -1.61,-0.738 -0.424,-0.492 -0.636,-1.106 -0.636,-1.842 z m -21.213,0 h -2.143 v 1.485 H -8.02 c -0.681,-1.144 -1.72,-1.717 -3.118,-1.717 -1.2,0 -2.156,0.427 -2.867,1.281 -0.711,0.853 -1.067,2.01 -1.067,3.47 0,1.577 0.394,2.841 1.183,3.79 0.789,0.949 1.845,1.424 3.169,1.424 0.6,0 1.132,-0.12 1.595,-0.362 0.464,-0.241 0.832,-0.59 1.105,-1.048 h 0.037 v 5.743 h 2.143 z m -92.945,4.12 c 0.043,-0.866 0.306,-1.525 0.789,-1.976 0.482,-0.452 1.172,-0.678 2.069,-0.678 0.538,0 1.054,0.085 1.549,0.255 0.495,0.171 0.928,0.389 1.299,0.655 v -1.81 c -0.359,-0.235 -0.841,-0.426 -1.447,-0.575 -0.606,-0.148 -1.247,-0.223 -1.921,-0.223 -1.441,0 -2.558,0.432 -3.349,1.295 -0.792,0.863 -1.188,2.061 -1.188,3.595 0,1.014 0.196,1.902 0.589,2.663 0.393,0.761 0.937,1.353 1.633,1.777 0.696,0.423 1.462,0.635 2.297,0.635 1.311,0 2.33,-0.402 3.057,-1.206 0.727,-0.804 1.09,-1.917 1.09,-3.34 V -8.74 Z m 68.034,5.381 h 2.292 v -1.725 h -2.292 v -4.602 c 0,-0.6 0.108,-1.026 0.325,-1.276 0.216,-0.251 0.556,-0.376 1.02,-0.376 0.124,0 0.28,0.026 0.469,0.079 0.188,0.052 0.348,0.122 0.478,0.209 v -1.717 c -0.13,-0.074 -0.361,-0.147 -0.692,-0.218 -0.331,-0.071 -0.651,-0.107 -0.96,-0.107 -1.862,0 -2.793,1.002 -2.793,3.007 v 5.001 h -1.577 v 1.725 h 1.577 v 2.19 l 2.153,0.659 z m -5.293,-6.782 c 0,-0.885 -0.34,-1.598 -1.021,-2.139 -0.68,-0.541 -1.602,-0.812 -2.765,-0.812 -0.377,0 -0.805,0.05 -1.285,0.149 -0.479,0.099 -0.879,0.223 -1.201,0.371 v 2.05 c 0.396,-0.284 0.829,-0.504 1.299,-0.658 0.47,-0.155 0.894,-0.232 1.271,-0.232 1.027,0 1.54,0.34 1.54,1.02 0,0.242 -0.051,0.435 -0.153,0.58 -0.102,0.146 -0.278,0.291 -0.529,0.436 -0.25,0.146 -0.638,0.327 -1.164,0.543 -0.619,0.266 -1.078,0.523 -1.378,0.77 -0.3,0.248 -0.523,0.538 -0.668,0.872 -0.145,0.334 -0.218,0.724 -0.218,1.169 0,0.854 0.337,1.55 1.011,2.088 0.674,0.538 1.547,0.807 2.617,0.807 0.328,0 0.7,-0.038 1.118,-0.116 0.417,-0.077 0.756,-0.171 1.016,-0.283 v -1.939 c -0.291,0.198 -0.634,0.357 -1.03,0.478 -0.396,0.121 -0.789,0.181 -1.179,0.181 -0.426,0 -0.763,-0.096 -1.011,-0.288 -0.247,-0.192 -0.371,-0.436 -0.371,-0.733 0,-0.334 0.097,-0.595 0.292,-0.784 0.195,-0.188 0.654,-0.428 1.378,-0.719 0.891,-0.359 1.519,-0.758 1.884,-1.197 0.365,-0.439 0.547,-0.977 0.547,-1.614 m 63.604,6.782 h 2.292 V -5.084 H 27.56 v -4.602 c 0,-0.6 0.108,-1.026 0.325,-1.276 0.216,-0.251 0.556,-0.376 1.02,-0.376 0.124,0 0.28,0.026 0.469,0.079 0.188,0.052 0.348,0.122 0.478,0.209 v -1.717 c -0.13,-0.074 -0.361,-0.147 -0.692,-0.218 -0.331,-0.071 -0.651,-0.107 -0.96,-0.107 -1.862,0 -2.793,1.002 -2.793,3.007 v 5.001 H 23.83 v 1.725 h 1.577 v 2.19 l 2.153,0.659 z m -89.623,-8.192 c -0.662,-1.027 -1.599,-1.541 -2.812,-1.541 -0.934,0 -1.67,0.254 -2.208,0.761 -0.538,0.507 -0.807,1.194 -0.807,2.06 0,0.891 0.263,1.605 0.788,2.143 0.526,0.538 1.299,0.872 2.32,1.002 l 2.774,0.381 c 0,1.292 -0.6,1.939 -1.8,1.939 -0.581,0 -1.146,-0.096 -1.693,-0.288 -0.547,-0.192 -1.035,-0.448 -1.461,-0.77 v 1.893 c 0.34,0.216 0.852,0.411 1.535,0.584 0.684,0.174 1.298,0.26 1.842,0.26 1.218,0 2.135,-0.317 2.751,-0.951 0.615,-0.634 0.923,-1.554 0.923,-2.76 v -6.022 h -2.115 v 1.309 z m 70.195,0 c -0.662,-1.027 -1.599,-1.541 -2.811,-1.541 -0.934,0 -1.67,0.254 -2.208,0.761 -0.539,0.507 -0.808,1.194 -0.808,2.06 0,0.891 0.263,1.605 0.789,2.143 0.526,0.538 1.299,0.872 2.32,1.002 l 2.774,0.381 c 0,1.292 -0.6,1.939 -1.8,1.939 -0.582,0 -1.146,-0.096 -1.693,-0.288 C 4.147,-5.286 3.66,-5.542 3.233,-5.864 v 1.893 c 0.34,0.216 0.852,0.411 1.536,0.584 0.683,0.174 1.297,0.26 1.841,0.26 1.219,0 2.136,-0.317 2.751,-0.951 0.616,-0.634 0.924,-1.554 0.924,-2.76 V -12.86 H 8.169 v 1.309 z m -28.088,0.12 c -0.291,-0.513 -0.685,-0.918 -1.183,-1.215 -0.498,-0.297 -1.06,-0.446 -1.684,-0.446 -1.108,0 -1.952,0.331 -2.533,0.993 -0.582,0.662 -0.873,1.655 -0.873,2.978 v 5.762 h 2.172 v -5.492 c 0,-1.658 0.658,-2.487 1.976,-2.487 0.649,0 1.172,0.229 1.568,0.687 0.396,0.457 0.594,1.057 0.594,1.8 v 5.492 h 2.162 v -9.501 h -2.162 v 1.429 z m -58.241,0 c -0.291,-0.513 -0.685,-0.918 -1.183,-1.215 -0.498,-0.297 -1.06,-0.446 -1.684,-0.446 -1.108,0 -1.952,0.331 -2.533,0.993 -0.582,0.662 -0.873,1.655 -0.873,2.978 v 5.762 h 2.172 v -5.492 c 0,-1.658 0.658,-2.487 1.976,-2.487 0.649,0 1.172,0.229 1.568,0.687 0.396,0.457 0.594,1.057 0.594,1.8 v 5.492 h 2.162 v -9.501 h -2.162 v 1.429 z m -24.897,-0.863 c -0.452,-0.247 -1.019,-0.442 -1.703,-0.584 -0.683,-0.142 -1.378,-0.214 -2.083,-0.214 -1.286,0 -2.415,0.274 -3.386,0.822 -0.971,0.547 -1.714,1.323 -2.227,2.328 -0.513,1.006 -0.77,2.161 -0.77,3.466 0,1.379 0.297,2.616 0.891,3.711 0.593,1.095 1.424,1.941 2.491,2.538 1.067,0.597 2.25,0.895 3.549,0.895 0.556,0 1.135,-0.046 1.735,-0.139 0.6,-0.093 1.101,-0.229 1.503,-0.408 v -2.246 c -0.947,0.557 -2.004,0.835 -3.173,0.835 -0.91,0 -1.722,-0.207 -2.436,-0.621 -0.714,-0.415 -1.266,-1.004 -1.656,-1.768 -0.39,-0.764 -0.585,-1.653 -0.585,-2.667 0,-1.472 0.402,-2.638 1.207,-3.498 0.804,-0.86 1.877,-1.29 3.219,-1.29 1.305,0 2.446,0.312 3.424,0.937 z m 12.06,-8.457 c 0,-0.47 -0.165,-0.856 -0.494,-1.156 -0.33,-0.3 -0.759,-0.45 -1.288,-0.45 -0.529,0 -0.958,0.153 -1.288,0.46 -0.33,0.307 -0.495,0.689 -0.495,1.146 0,0.463 0.168,0.842 0.505,1.136 0.336,0.294 0.762,0.44 1.278,0.44 0.522,0 0.95,-0.151 1.283,-0.455 0.333,-0.304 0.499,-0.677 0.499,-1.121 M 8.578,-22.357 H 7.334 v -4.378 h 1.244 c 1.684,0 2.527,0.738 2.527,2.213 0,1.443 -0.843,2.165 -2.527,2.165 m 17.452,-4.672 c 0,1.43 -0.307,2.556 -0.92,3.379 -0.614,0.822 -1.466,1.234 -2.557,1.234 -1.096,0 -1.975,-0.415 -2.634,-1.244 -0.66,-0.829 -0.989,-1.933 -0.989,-3.31 0,-1.371 0.323,-2.467 0.969,-3.286 0.647,-0.819 1.505,-1.229 2.576,-1.229 1.09,0 1.956,0.396 2.595,1.19 0.64,0.793 0.96,1.882 0.96,3.266 m -90.082,-1.851 c 0,1.874 -0.748,2.811 -2.243,2.811 -0.731,0 -1.299,-0.252 -1.704,-0.754 -0.405,-0.503 -0.607,-1.215 -0.607,-2.135 0,-1.926 0.777,-2.89 2.331,-2.89 1.482,0 2.223,0.99 2.223,2.968 m 21.076,0 c 0,1.874 -0.748,2.811 -2.243,2.811 -0.731,0 -1.299,-0.252 -1.704,-0.754 -0.405,-0.503 -0.607,-1.215 -0.607,-2.135 0,-1.926 0.777,-2.89 2.331,-2.89 1.482,0 2.223,0.99 2.223,2.968 m 8.755,-5.093 h -3.085 v 7.747 h -1.684 v 2.282 h 1.684 v 1.244 c 0,1.149 0.379,2.071 1.136,2.766 0.758,0.696 1.763,1.044 3.017,1.044 0.601,0 1.123,-0.066 1.567,-0.196 v -2.41 c -0.411,0.157 -0.793,0.235 -1.146,0.235 -0.992,0 -1.489,-0.538 -1.489,-1.616 v -1.067 h 2.292 v -2.282 h -2.292 z m -76.204,0 h -2.85 v 14.044 h 4.632 l 2.87,-8.324 c 0.196,-0.568 0.362,-1.238 0.499,-2.008 h 0.059 c 0.163,0.751 0.349,1.427 0.558,2.027 l 2.87,8.305 h 4.515 v -14.044 h -3.124 v 8.403 c 0,0.875 0.039,1.877 0.117,3.007 h -0.078 c -0.164,-0.862 -0.31,-1.482 -0.441,-1.861 l -3.291,-9.549 h -2.585 l -3.35,9.451 c -0.085,0.248 -0.231,0.901 -0.44,1.959 h -0.089 c 0.085,-1.228 0.128,-2.442 0.128,-3.643 z m 34.464,0 h -3.095 v 10.029 h 3.095 v -1.861 h 0.039 c 0.49,1.358 1.371,2.037 2.644,2.037 0.32,0 0.575,-0.039 0.764,-0.117 v -2.85 c -0.366,0.202 -0.8,0.303 -1.302,0.303 -0.679,0 -1.207,-0.243 -1.582,-0.729 -0.376,-0.487 -0.563,-1.161 -0.563,-2.023 z m 110.806,2.566 h 5.2 v -2.566 h -8.364 v 14.044 h 3.164 z m -44.004,8.903 h -4.936 v -3.125 h 4.594 v -2.565 h -4.594 v -3.213 h 5.26 v -2.566 h -8.423 v 14.044 h 8.099 z m -82.129,-11.469 h -3.095 v 10.029 h 3.095 z m 98.622,0 H 4.171 v 14.044 h 4.955 c 3.539,0 5.308,-1.492 5.308,-4.475 0,-0.927 -0.231,-1.75 -0.695,-2.468 -0.463,-0.719 -1.123,-1.275 -1.978,-1.67 -0.856,-0.395 -1.828,-0.593 -2.919,-0.593 H 7.334 Z m -5.396,3.947 c 0,-1.332 -0.483,-2.363 -1.45,-3.095 -0.966,-0.731 -2.301,-1.097 -4.005,-1.097 -1.45,0 -2.661,0.262 -3.634,0.784 v 3.134 c 1.123,-0.953 2.36,-1.43 3.712,-1.43 0.653,0 1.157,0.131 1.513,0.392 0.356,0.261 0.534,0.607 0.534,1.038 0,0.424 -0.172,0.793 -0.514,1.107 -0.343,0.313 -1.04,0.718 -2.091,1.214 -2.142,1.005 -3.213,2.377 -3.213,4.113 0,1.26 0.467,2.271 1.401,3.031 0.934,0.761 2.174,1.141 3.722,1.141 1.371,0 2.507,-0.179 3.408,-0.538 v -2.929 c -0.947,0.653 -2.024,0.98 -3.232,0.98 -0.607,0 -1.087,-0.129 -1.44,-0.387 -0.352,-0.258 -0.529,-0.602 -0.529,-1.033 0,-0.444 0.142,-0.808 0.426,-1.092 0.284,-0.284 0.867,-0.635 1.748,-1.053 1.313,-0.62 2.248,-1.25 2.806,-1.89 0.559,-0.64 0.838,-1.437 0.838,-2.39 m 27.422,3.173 c 0,-1.436 -0.292,-2.716 -0.876,-3.839 -0.585,-1.123 -1.408,-1.991 -2.469,-2.605 -1.06,-0.614 -2.26,-0.921 -3.599,-0.921 -1.306,0 -2.481,0.299 -3.525,0.897 -1.045,0.597 -1.855,1.434 -2.429,2.512 -0.575,1.077 -0.862,2.301 -0.862,3.672 0,1.456 0.29,2.749 0.872,3.879 0.581,1.129 1.408,2.006 2.482,2.629 1.074,0.624 2.303,0.935 3.688,0.935 1.292,0 2.453,-0.297 3.481,-0.891 1.029,-0.594 1.825,-1.436 2.39,-2.527 0.565,-1.09 0.847,-2.337 0.847,-3.741 m -69.183,-1.968 c 0,-1.659 -0.491,-2.973 -1.474,-3.942 -0.982,-0.97 -2.316,-1.455 -4,-1.455 -1.652,0 -2.961,0.464 -3.927,1.391 -0.967,0.927 -1.45,2.204 -1.45,3.829 0,1.659 0.496,2.956 1.489,3.893 0.992,0.937 2.334,1.406 4.025,1.406 1.645,0 2.946,-0.465 3.903,-1.396 0.956,-0.93 1.434,-2.172 1.434,-3.726 m -21.076,0 c 0,-1.659 -0.491,-2.973 -1.474,-3.942 -0.982,-0.97 -2.316,-1.455 -4,-1.455 -1.652,0 -2.961,0.464 -3.927,1.391 -0.967,0.927 -1.45,2.204 -1.45,3.829 0,1.659 0.496,2.956 1.489,3.893 0.992,0.937 2.334,1.406 4.025,1.406 1.645,0 2.946,-0.465 3.903,-1.396 0.956,-0.93 1.434,-2.172 1.434,-3.726 m 8.922,-2.086 c 0,-1.032 -0.396,-1.842 -1.189,-2.429 -0.794,-0.588 -1.863,-0.882 -3.208,-0.882 -1.064,0 -2.034,0.17 -2.909,0.51 v 2.507 c 1.006,-0.607 1.962,-0.911 2.87,-0.911 0.979,0 1.469,0.304 1.469,0.911 0,0.202 -0.047,0.361 -0.142,0.475 -0.095,0.114 -0.261,0.233 -0.499,0.357 -0.239,0.124 -0.655,0.301 -1.249,0.529 -0.862,0.314 -1.486,0.697 -1.871,1.151 -0.385,0.454 -0.578,1.053 -0.578,1.797 0,0.966 0.386,1.74 1.156,2.321 0.77,0.581 1.789,0.872 3.056,0.872 0.816,0 1.645,-0.134 2.487,-0.402 v -2.389 c -0.77,0.457 -1.586,0.685 -2.448,0.685 -0.816,0 -1.224,-0.281 -1.224,-0.842 0,-0.216 0.042,-0.385 0.127,-0.509 0.085,-0.124 0.237,-0.247 0.455,-0.368 0.219,-0.12 0.547,-0.259 0.985,-0.416 0.979,-0.359 1.676,-0.767 2.091,-1.224 0.414,-0.457 0.621,-1.038 0.621,-1.743 m 25.719,6.963 h 2.252 v -2.282 h -2.252 v -4.055 c 0,-1.044 0.414,-1.567 1.244,-1.567 0.326,0 0.662,0.095 1.008,0.284 v -2.291 c -0.457,-0.242 -1.146,-0.363 -2.066,-0.363 -2.181,0 -3.271,1.133 -3.271,3.399 v 4.593 h -1.626 v 2.282 h 1.626 v 2.164 l 3.085,0.882 z m -54.825,-9.666 c -0.699,-0.405 -1.708,-0.608 -3.027,-0.608 -0.992,0 -1.882,0.211 -2.668,0.632 -0.787,0.421 -1.401,1.017 -1.842,1.787 -0.44,0.771 -0.661,1.636 -0.661,2.596 0,1.678 0.508,3.015 1.523,4.01 1.016,0.996 2.385,1.494 4.109,1.494 1.188,0 2.043,-0.157 2.566,-0.47 v -2.625 c -0.653,0.483 -1.375,0.725 -2.165,0.725 -0.907,0 -1.616,-0.268 -2.125,-0.803 -0.509,-0.536 -0.764,-1.244 -0.764,-2.126 0,-0.881 0.25,-1.576 0.749,-2.086 0.5,-0.509 1.18,-0.764 2.042,-0.764 0.771,0 1.525,0.242 2.263,0.725 z"
           style="fill:#54565b;fill-opacity:1;fill-rule:nonzero;stroke:none"
           id="path213"
           inkscape:connector-curvature="0" />
      </g>
      <g
         id="g219"
         transform="translate(93.8499,1109.0559)">
        <path
           d="m 0,0 c 7.827,-13.557 24.965,-18.338 38.246,-10.67 13.281,7.668 17.71,24.9 9.883,38.457 C 51.994,16.462 46.667,2.38 34.701,-4.529 22.734,-11.438 7.876,-9.01 0,0"
           style="fill:#f98e2b;fill-opacity:1;fill-rule:evenodd;stroke:none"
           id="path217"
           inkscape:connector-curvature="0" />
      </g>
      <g
         id="g223"
         transform="translate(111.1668,1114.488)">
        <path
           d="m 0,0 c 0.811,-0.258 1.696,-0.112 2.383,0.39 0.686,0.503 1.092,1.303 1.092,2.154 v 14.021 c 0,0.851 -0.406,1.651 -1.092,2.154 -0.687,0.502 -1.572,0.647 -2.383,0.39 -4.562,-1.445 -12.408,-3.932 -15.975,-5.062 -1.109,-0.351 -1.862,-1.381 -1.862,-2.544 V 7.606 c 0,-1.163 0.753,-2.193 1.862,-2.544 C -12.408,3.931 -4.562,1.445 0,0 M 24.666,31.488 C 11.03,45.124 -11.116,45.119 -24.757,31.478 -38.399,17.836 -38.404,-4.31 -24.768,-17.945 c -8.167,12.286 -6.104,30.955 6.187,43.246 12.291,12.291 30.96,14.354 43.247,6.187"
           style="fill:#ea002a;fill-opacity:1;fill-rule:evenodd;stroke:none"
           id="path221"
           inkscape:connector-curvature="0" />
      </g>
      <g
         id="g227"
         transform="translate(119.928,1133.5969)">
        <path
           d="m 0,0 c -0.811,0.257 -1.696,0.112 -2.383,-0.39 -0.686,-0.503 -1.092,-1.303 -1.092,-2.154 v -14.021 c 0,-0.851 0.406,-1.651 1.092,-2.154 0.687,-0.502 1.572,-0.648 2.383,-0.39 4.562,1.445 12.407,3.931 15.975,5.062 1.109,0.351 1.862,1.381 1.862,2.544 v 3.897 c 0,1.163 -0.753,2.193 -1.862,2.544 C 12.407,-3.932 4.562,-1.445 0,0 m -27.104,1.661 c -11.268,-11.268 -11.322,-29.509 -0.122,-40.71 11.2,-11.2 29.442,-11.145 40.709,0.122 -10.142,-6.759 -25.514,-5.109 -35.605,4.982 -10.091,10.092 -11.742,25.464 -4.982,35.606"
           style="fill:#592c82;fill-opacity:1;fill-rule:evenodd;stroke:none"
           id="path225"
           inkscape:connector-curvature="0" />
      </g>
    </g>
  </g>
</svg>
